<svg width="18" height="16" viewBox="0 0 18 16" fill="none" xmlns="http://www.w3.org/2000/svg">
<path fill-rule="evenodd" clip-rule="evenodd" d="M0.599609 7.99986C0.599609 7.76117 0.69443 7.53225 0.863213 7.36347C1.032 7.19468 1.26091 7.09986 1.49961 7.09986H14.2652L9.27561 2.34786C9.1864 2.26694 9.11433 2.16893 9.06369 2.05964C9.01305 1.95036 8.98486 1.83202 8.98079 1.71164C8.97673 1.59126 8.99687 1.47129 9.04001 1.35884C9.08316 1.24638 9.14845 1.14373 9.23199 1.05697C9.31554 0.970211 9.41565 0.901103 9.5264 0.853743C9.63715 0.806382 9.75627 0.781734 9.87672 0.781257C9.99717 0.780781 10.1165 0.804486 10.2276 0.850968C10.3387 0.897451 10.4394 0.965765 10.5236 1.05186L17.1236 7.35186C17.2107 7.43582 17.28 7.53647 17.3273 7.64781C17.3746 7.75915 17.399 7.87888 17.399 7.99986C17.399 8.12084 17.3746 8.24058 17.3273 8.35191C17.28 8.46325 17.2107 8.56391 17.1236 8.64786L10.5236 14.9479C10.4394 15.034 10.3387 15.1023 10.2276 15.1488C10.1165 15.1952 9.99717 15.2189 9.87672 15.2185C9.75627 15.218 9.63715 15.1933 9.5264 15.146C9.41565 15.0986 9.31554 15.0295 9.23199 14.9428C9.14845 14.856 9.08316 14.7533 9.04001 14.6409C8.99687 14.5284 8.97673 14.4085 8.98079 14.2881C8.98486 14.1677 9.01305 14.0494 9.06369 13.9401C9.11433 13.8308 9.1864 13.7328 9.27561 13.6519L14.2652 8.89986H1.49961C1.26091 8.89986 1.032 8.80504 0.863213 8.63626C0.69443 8.46748 0.599609 8.23856 0.599609 7.99986Z" fill="white"/>
</svg>
