<svg width="17" height="15" viewBox="0 0 17 15" fill="none" xmlns="http://www.w3.org/2000/svg">
<path d="M11.8337 3.4559C12.2834 2.95346 12.9369 2.63726 13.6643 2.63726C15.0206 2.63726 16.1201 3.73681 16.1201 5.09316C16.1201 6.44955 15.0206 7.54906 13.6643 7.54906H1.38477M5.89482 1.54576C6.19462 1.2108 6.63029 1 7.11519 1C8.01945 1 8.75246 1.73303 8.75246 2.63726C8.75246 3.5415 8.01945 4.27453 7.11519 4.27453H1.38477M8.35075 13.5523C8.65054 13.8873 9.08621 14.0981 9.57109 14.0981C10.4753 14.0981 11.2084 13.3651 11.2084 12.4609C11.2084 11.5566 10.4753 10.8236 9.57109 10.8236H1.38477" stroke="white" stroke-width="1.29205" stroke-linecap="round" stroke-linejoin="round"/>
</svg>
